<?xml version="1.0" encoding="UTF-8" standalone="no"?>
<!-- Created with Inkscape (http://www.inkscape.org/) -->

<svg
   width="195.93059mm"
   height="38.867092mm"
   viewBox="0 0 195.93059 38.867092"
   version="1.1"
   id="svg1"
   xmlns="http://www.w3.org/2000/svg"
   xmlns:svg="http://www.w3.org/2000/svg">
  <defs
     id="defs1" />
  <g
     id="layer2"
     transform="translate(-12.966719,-11.938491)">
    <g
       id="g35"
       style="fill:#ffffff">
      <path
         fill-rule="nonzero"
         fill="#ff0000"
         fill-opacity="1"
         d="m 344.77313,419.24091 v -50.24557 h 17.17889 l 9.43624,32.38924 9.16926,-32.38924 h 17.24264 v 50.24557 h -11.81124 l 0.40646,-37.61743 -10.86283,37.61743 h -8.48783 l -10.86283,-37.61743 0.40646,37.61743 z m 0,0"
         id="path18"
         style="fill:#ffffff;stroke-width:1.02013"
         transform="matrix(0.35277777,0,0,0.35277777,-61.248631,-117.89888)" />
      <path
         fill-rule="nonzero"
         fill="#ff0000"
         fill-opacity="1"
         d="m 414.5726,400.56768 c 0,3.46287 2.57822,9.44021 9.36849,9.44021 4.00482,0 6.44756,-1.90477 7.87416,-4.21203 0.95238,-1.49434 1.42659,-3.12416 1.56208,-4.82172 0.13548,-1.69757 -0.20324,-3.39514 -0.94841,-4.95722 -1.22337,-2.57822 -3.80159,-5.22419 -8.55558,-5.22419 -6.45155,0 -9.30074,5.42742 -9.30074,9.7072 z m 30.07401,18.67323 h -11.26928 v -4.07656 c -2.03628,3.66611 -6.72252,5.36367 -11.1338,5.36367 -11.95072,0 -18.94421,-9.36849 -18.94421,-20.16357 0,-12.35717 8.89429,-20.09983 18.94421,-20.09983 6.17658,0 9.63946,2.98868 11.1338,5.29992 v -4.00881 h 11.26928 z m 0,0"
         id="path19"
         style="fill:#ffffff;stroke-width:1.02013"
         transform="matrix(0.35277777,0,0,0.35277777,-61.248631,-117.89888)" />
      <path
         fill-rule="nonzero"
         fill="#ff0000"
         fill-opacity="1"
         d="m 451.91108,368.99534 h 11.27328 v 26.20867 l 10.58787,-13.64828 h 13.3773 l -14.19022,16.56921 13.78376,21.11597 h -12.76363 l -10.79508,-18.13128 v 18.13128 h -11.27328 z m 0,0"
         id="path20"
         style="fill:#ffffff;stroke-width:1.02013"
         transform="matrix(0.35277777,0,0,0.35277777,-61.248631,-117.89888)" />
      <path
         fill-rule="nonzero"
         fill="#ff0000"
         fill-opacity="1"
         d="m 513.76466,395.74596 c -0.27097,-1.76531 -2.57823,-5.97337 -8.42009,-5.97337 -5.83787,0 -8.14513,4.20806 -8.41611,5.97337 z m -16.97168,8.55556 c 0.47421,4.00483 4.2758,6.65478 8.69106,6.65478 3.59837,0 5.49916,-1.56208 6.85402,-3.53062 h 11.54425 c -1.83305,4.20805 -4.48301,7.46771 -7.67092,9.63947 -3.12416,2.2435 -6.85801,3.39514 -10.72735,3.39514 -10.79907,0 -19.96433,-8.75881 -19.96433,-19.96036 0,-10.52411 8.28459,-20.23132 19.7611,-20.23132 5.77013,0 10.72336,2.23951 14.25797,5.97336 4.75,5.0927 6.17658,11.1338 5.29592,18.05955 z m 0,0"
         id="path21"
         style="fill:#ffffff;stroke-width:1.02013"
         transform="matrix(0.35277777,0,0,0.35277777,-61.248631,-117.89888)" />
      <path
         fill-rule="nonzero"
         fill="#ff0000"
         fill-opacity="1"
         d="m 529.99116,381.55573 h 10.59185 v 4.20805 c 1.08788,-2.03627 3.05643,-5.49517 9.57571,-5.49517 v 11.33703 h -0.40646 c -5.77411,0 -8.48783,2.10403 -8.48783,7.39996 v 20.23531 h -11.27327 z m 0,0"
         id="path22"
         style="fill:#ffffff;stroke-width:1.02013"
         transform="matrix(0.35277777,0,0,0.35277777,-61.248631,-117.89888)" />
      <path
         fill-rule="nonzero"
         fill="#ff0000"
         fill-opacity="1"
         d="m 565.77155,402.60396 c 0,5.84185 3.59836,6.85801 5.22819,6.85801 3.05641,0 4.88947,-2.51049 4.88947,-4.82172 0,-2.64598 -2.10403,-3.46289 -9.84669,-6.71854 -3.52663,-1.4266 -12.28543,-4.95722 -12.28543,-14.39744 0,-10.11367 9.16526,-15.48132 17.58136,-15.48132 6.92575,0 16.70469,3.53061 16.90792,15.61681 h -12.69588 c -0.27097,-1.69359 -0.68141,-4.88947 -4.6185,-4.88947 -2.23951,0 -4.41128,1.56208 -4.41128,3.94106 0,2.30726 1.35487,2.91695 10.38464,6.9935 9.37248,4.20805 11.74749,8.55557 11.74749,14.39345 0,8.01362 -4.20806,16.09101 -17.51762,16.09101 -13.17008,0 -18.46601,-7.73866 -18.12729,-17.58535 z m 0,0"
         id="path23"
         style="fill:#ffffff;stroke-width:1.02013"
         transform="matrix(0.35277777,0,0,0.35277777,-61.248631,-117.89888)" />
      <path
         fill-rule="nonzero"
         fill="#ff0000"
         fill-opacity="1"
         d="m 622.60017,400.36445 c 0,-4.41527 -3.25566,-9.57172 -9.43623,-9.57172 -2.71372,0 -5.09271,1.08389 -6.79027,2.8492 -1.62983,1.69756 -2.64597,4.1403 -2.64597,6.858 0,2.64597 1.01614,5.02496 2.71372,6.72253 1.69756,1.69756 4.07654,2.78543 6.72252,2.78543 5.90561,0 9.43623,-4.82172 9.43623,-9.57569 z m -29.66756,-18.80872 h 10.58788 v 4.1443 c 2.44672,-2.8532 6.18057,-5.43541 11.9507,-5.43541 13.3773,0 18.40226,11.74748 18.40226,20.50629 0,10.86282 -7.60717,19.75711 -18.33451,19.75711 -6.78629,0 -9.97818,-3.25964 -11.33704,-4.68225 v 15.95554 h -11.26929 z m 0,0"
         id="path24"
         style="fill:#ffffff;stroke-width:1.02013"
         transform="matrix(0.35277777,0,0,0.35277777,-61.248631,-117.89888)" />
      <path
         fill-rule="nonzero"
         fill="#ff0000"
         fill-opacity="1"
         d="m 648.40238,400.56768 c 0,3.46287 2.57823,9.44021 9.36849,9.44021 4.00482,0 6.44757,-1.90477 7.87416,-4.21203 0.9524,-1.49434 1.4266,-3.12416 1.56208,-4.82172 0.13549,-1.69757 -0.20323,-3.39514 -0.9484,-4.95722 -1.22336,-2.57822 -3.8016,-5.22419 -8.55557,-5.22419 -6.45155,0 -9.30076,5.42742 -9.30076,9.7072 z m 30.078,18.67323 h -11.27327 v -4.07656 c -2.03628,3.66611 -6.72252,5.36367 -11.1338,5.36367 -11.9507,0 -18.9442,-9.36849 -18.9442,-20.16357 0,-12.35717 8.89429,-20.09983 18.9442,-20.09983 6.17659,0 9.63947,2.98868 11.1338,5.29992 v -4.00881 h 11.27327 z m 0,0"
         id="path25"
         style="fill:#ffffff;stroke-width:1.02013"
         transform="matrix(0.35277777,0,0,0.35277777,-61.248631,-117.89888)" />
      <path
         fill-rule="nonzero"
         fill="#ff0000"
         fill-opacity="1"
         d="m 722.64938,404.91121 c -2.03629,8.55558 -9.57172,15.54908 -19.75713,15.54908 -11.40875,0 -20.16756,-8.96204 -20.16756,-20.16359 0,-11.07004 8.62331,-20.02809 19.89659,-20.02809 9.97819,0 18.05955,6.58306 19.96035,15.82004 h -11.40876 c -1.21937,-2.58221 -3.45889,-5.29991 -8.14513,-5.29991 -2.64995,-0.13549 -4.88947,0.88465 -6.51929,2.64996 -1.56208,1.76531 -2.44274,4.20805 -2.44274,6.92575 0,5.49915 3.59836,9.57172 8.96203,9.57172 4.68624,0 6.92576,-2.71371 8.14513,-5.02496 z m 0,0"
         id="path26"
         style="fill:#ffffff;stroke-width:1.02013"
         transform="matrix(0.35277777,0,0,0.35277777,-61.248631,-117.89888)" />
      <path
         fill-rule="nonzero"
         fill="#ff0000"
         fill-opacity="1"
         d="m 754.45245,395.74596 c -0.27096,-1.76531 -2.57822,-5.97337 -8.42009,-5.97337 -5.83787,0 -8.14512,4.20806 -8.4161,5.97337 z m -16.97168,8.55556 c 0.47421,4.00483 4.2758,6.65478 8.69106,6.65478 3.59837,0 5.49917,-1.56208 6.85403,-3.53062 h 11.54425 c -1.83306,4.20805 -4.48301,7.46771 -7.67492,9.63947 -3.12017,2.2435 -6.85402,3.39514 -10.72336,3.39514 -10.79906,0 -19.96433,-8.75881 -19.96433,-19.96036 0,-10.52411 8.2846,-20.23132 19.75712,-20.23132 5.77411,0 10.72734,2.23951 14.26195,5.97336 4.75,5.0927 6.17659,11.1338 5.29593,18.05955 z m 0,0"
         id="path27"
         style="fill:#ffffff;stroke-width:1.02013"
         transform="matrix(0.35277777,0,0,0.35277777,-61.248631,-117.89888)" />
      <path
         fill-rule="nonzero"
         fill="#ff0000"
         fill-opacity="1"
         d="m 344.77313,426.75244 h 12.83138 v 38.97229 h 14.87163 V 476.998 h -27.70301 z m 0,0"
         id="path28"
         style="fill:#ffffff;stroke-width:1.02013"
         transform="matrix(0.35277777,0,0,0.35277777,-61.248631,-117.89888)" />
      <path
         fill-rule="nonzero"
         fill="#ff0000"
         fill-opacity="1"
         d="m 403.37671,453.50305 c -0.27496,-1.76531 -2.58221,-5.97336 -8.42008,-5.97336 -5.84187,0 -8.14912,4.20805 -8.42009,5.97336 z m -16.97566,8.55558 c 0.4742,4.00482 4.27579,6.65478 8.69106,6.65478 3.59836,0 5.49915,-1.56208 6.85801,-3.53063 h 11.54027 c -1.83306,4.20806 -4.47903,7.4677 -7.67094,9.63947 -3.12416,2.2435 -6.858,3.39514 -10.72734,3.39514 -10.79508,0 -19.96433,-8.75881 -19.96433,-19.96035 0,-10.52412 8.2846,-20.23133 19.7611,-20.23133 5.77013,0 10.72735,2.23951 14.25796,5.97337 4.75,5.09269 6.17659,11.1338 5.29593,18.05955 z m 0,0"
         id="path29"
         style="fill:#ffffff;stroke-width:1.02013"
         transform="matrix(0.35277777,0,0,0.35277777,-61.248631,-117.89888)" />
      <path
         fill-rule="nonzero"
         fill="#ff0000"
         fill-opacity="1"
         d="m 419.67096,439.31284 h 11.26928 V 476.998 h -11.26928 z m 0,-12.5604 h 11.26928 v 8.55558 h -11.26928 z m 0,0"
         id="path30"
         style="fill:#ffffff;stroke-width:1.02013"
         transform="matrix(0.35277777,0,0,0.35277777,-61.248631,-117.89888)" />
      <path
         fill-rule="nonzero"
         fill="#ff0000"
         fill-opacity="1"
         d="m 447.23449,458.0538 c 0,5.77014 4.14031,9.64346 9.44023,9.64346 2.71371,0 5.22419,-1.08788 6.9895,-2.85319 1.76929,-1.76531 2.78545,-4.20805 2.64996,-6.9935 0,-2.71769 -1.08788,-5.02495 -2.78544,-6.65478 -1.69757,-1.69756 -4.07257,-2.64597 -6.71854,-2.64597 -6.5193,0 -9.57571,5.0927 -9.57571,9.43624 z m 29.73929,18.9442 h -10.72734 v -4.07255 c -1.08788,1.55809 -3.80159,5.29194 -11.40478,5.29194 -11.40876,0 -18.87645,-8.82655 -18.87645,-20.16359 0,-12.76362 9.09751,-20.02809 18.66924,-20.02809 6.65477,0 9.84668,3.25566 11.07004,4.47902 v -15.75229 h 11.26929 z m 0,0"
         id="path31"
         style="fill:#ffffff;stroke-width:1.02013"
         transform="matrix(0.35277777,0,0,0.35277777,-61.248631,-117.89888)" />
      <path
         fill-rule="nonzero"
         fill="#ff0000"
         fill-opacity="1"
         d="m 509.97271,453.50305 c -0.27096,-1.76531 -2.58221,-5.97336 -8.42009,-5.97336 -5.83787,0 -8.14911,4.20805 -8.42008,5.97336 z m -16.97565,8.55558 c 0.4742,4.00482 4.27579,6.65478 8.69106,6.65478 3.59835,0 5.49915,-1.56208 6.85402,-3.53063 h 11.54424 c -1.83305,4.20806 -4.47902,7.4677 -7.67093,9.63947 -3.12415,2.2435 -6.858,3.39514 -10.72733,3.39514 -10.79509,0 -19.96435,-8.75881 -19.96435,-19.96035 0,-10.52412 8.28461,-20.23133 19.76112,-20.23133 5.77013,0 10.72733,2.23951 14.25796,5.97337 4.75398,5.09269 6.17659,11.1338 5.29593,18.05955 z m 0,0"
         id="path32"
         style="fill:#ffffff;stroke-width:1.02013"
         transform="matrix(0.35277777,0,0,0.35277777,-61.248631,-117.89888)" />
      <path
         fill-rule="nonzero"
         fill="#ff0000"
         fill-opacity="1"
         d="m 526.26297,439.31284 h 10.5281 v 4.00482 c 1.28712,-1.82907 3.66213,-5.29195 10.38465,-5.29195 12.69986,0 13.98699,10.32089 13.98699,15.4096 V 476.998 h -11.2693 v -20.57402 c 0,-4.14031 -0.88464,-7.80641 -5.90561,-7.80641 -5.57089,0 -6.45155,4.00482 -6.45155,7.87416 V 476.998 h -11.27328 z m 0,0"
         id="path33"
         style="fill:#ffffff;stroke-width:1.02013"
         transform="matrix(0.35277777,0,0,0.35277777,-61.248631,-117.89888)" />
    </g>
    <path
       id="path1"
       style="fill:#ffffff;stroke-width:2.82223;paint-order:fill markers stroke"
       d="m 12.966699,12.268014 v 38.1 h 38.1 v -38.1 z m 10.738879,4.949568 c 1.607256,-0.01999 3.221319,0.62965 4.33772,1.79834 1.53924,1.53489 2.094861,3.948588 1.392163,6.002218 l 2.111499,2.111499 -3.74189,3.74189 -2.09548,-2.095479 c -0.610023,0.21273 -1.254738,0.326293 -1.907377,0.317293 -1.408148,0.006 -2.813647,-0.525144 -3.876249,-1.454174 -1.73845,-1.47044 -2.496857,-3.987796 -1.812292,-6.167066 1.586583,1.5865 2.109974,2.058239 3.696415,3.644739 1.052618,-0.28266 2.105809,-0.564437 3.158463,-0.846977 0.282645,-1.05268 0.563756,-2.105643 0.845943,-3.158463 -1.586406,-1.58631 -2.109221,-2.058199 -3.695381,-3.644739 0.515585,-0.16098 1.050702,-0.242081 1.586466,-0.249081 z m 19.278927,1.025778 2.120284,2.1208 -2.522327,2.521294 3.068547,3.068546 -2.120284,2.120284 -1.659847,-1.659847 -2.048454,2.048454 1.66088,1.660364 -2.120284,2.120284 -3.07113,-3.071131 -7.404199,7.401099 c 0.50539,0.86699 0.79685,1.871569 0.79685,2.940389 0,3.23069 -2.651624,5.881811 -5.882328,5.881811 -3.230703,0 -5.881295,-2.651121 -5.881295,-5.881811 0,-3.2307 2.650592,-5.881812 5.881295,-5.881812 1.081582,0 2.097423,0.298338 2.971395,0.814938 z m -6.782015,13.541809 2.176094,2.176094 c 0.60512,-0.20641 1.239617,-0.31381 1.878956,-0.31781 3.279246,0 5.937587,2.658579 5.937622,5.938139 2.47e-4,3.27977 -2.6582,5.938666 -5.937622,5.938656 -3.279422,-1e-5 -5.93787,-2.658906 -5.937623,-5.938656 0.0042,-0.63917 0.111471,-1.273478 0.317811,-1.878438 l -2.176612,-2.176612 z m 4.919596,4.65708 -3.157947,0.845943 -0.845943,3.157947 2.311487,2.311487 3.157947,-0.845944 0.845943,-3.157946 z m -17.319873,0.188102 c -1.610148,0 -2.883028,1.273415 -2.883028,2.883545 0,1.61013 1.27288,2.883028 2.883028,2.883028 1.610113,0 2.883545,-1.272898 2.883545,-2.883028 0,-1.61013 -1.273432,-2.883545 -2.883545,-2.883545 z" />
  </g>
</svg>
